<?xml version="1.0" encoding="UTF-8" standalone="no"?>
<!-- Generator: Adobe Illustrator 16.0.0, SVG Export Plug-In . SVG Version: 6.00 Build 0)  -->

<svg
   xmlns:dc="http://purl.org/dc/elements/1.1/"
   xmlns:cc="http://creativecommons.org/ns#"
   xmlns:rdf="http://www.w3.org/1999/02/22-rdf-syntax-ns#"
   xmlns:svg="http://www.w3.org/2000/svg"
   xmlns="http://www.w3.org/2000/svg"
   xmlns:sodipodi="http://sodipodi.sourceforge.net/DTD/sodipodi-0.dtd"
   xmlns:inkscape="http://www.inkscape.org/namespaces/inkscape"
   version="1.1"
   id="Capa_1"
   x="0px"
   y="0px"
   width="475.082px"
   height="475.082px"
   viewBox="0 0 475.082 475.082"
   style="enable-background:new 0 0 475.082 475.082;"
   xml:space="preserve"
   sodipodi:docname="categories.svg"
   inkscape:version="0.92.2 (5c3e80d, 2017-08-06)"><metadata
     id="metadata49"><rdf:RDF><cc:Work
         rdf:about=""><dc:format>image/svg+xml</dc:format><dc:type
           rdf:resource="http://purl.org/dc/dcmitype/StillImage" /><dc:title></dc:title></cc:Work></rdf:RDF></metadata><defs
     id="defs47" /><sodipodi:namedview
     pagecolor="#ffffff"
     bordercolor="#666666"
     borderopacity="1"
     objecttolerance="10"
     gridtolerance="10"
     guidetolerance="10"
     inkscape:pageopacity="0"
     inkscape:pageshadow="2"
     inkscape:window-width="1366"
     inkscape:window-height="706"
     id="namedview45"
     showgrid="false"
     inkscape:zoom="0.70251957"
     inkscape:cx="627.16046"
     inkscape:cy="283.84448"
     inkscape:window-x="-8"
     inkscape:window-y="-8"
     inkscape:window-maximized="1"
     inkscape:current-layer="g10" /><g
     id="g10"><path
       style="fill:#ececec"
       d="m 36.546875,256.54297 c -9.9,0 -18.464266,3.61851 -25.697266,10.85351 C 3.6166094,274.62048 0,283.19289 0,293.08789 v 109.63477 c 0,9.897 3.6166094,18.46436 10.849609,25.69336 7.232,7.236 15.796266,10.85351 25.697266,10.85351 H 182.72461 c 9.9,0 18.46426,-3.62051 25.69727,-10.85351 7.233,-7.229 10.8496,-15.79636 10.8496,-25.69336 V 293.08789 c 0,-9.895 -3.6166,-18.46536 -10.8496,-25.69336 -7.23301,-7.237 -15.80027,-10.85156 -25.69727,-10.85156 z m 50.666016,30.10937 c 10.879575,-0.30608 15.090729,6.50542 20.999999,6.78125 6.28821,-0.29422 10.68695,-8.02464 23.25586,-6.62109 12.88114,1.43207 20.66992,12.33398 20.66992,12.33398 l -15.69336,14.61915 H 79.955078 L 64.275391,299.14648 c 0,0 7.80079,-10.90041 20.669921,-12.33398 0.787058,-0.0877 1.542274,-0.13975 2.267579,-0.16016 z m -11.490235,36.49219 h 64.974614 c 0,0.008 31.18462,24.56263 20.93945,69.8125 0,0 -3.41119,13.07617 -19.06641,13.07617 H 73.867188 c -15.689743,0 -19.097657,-13.07617 -19.097657,-13.07617 -10.239163,-45.25737 20.953125,-69.8125 20.953125,-69.8125 z m 40.683594,9.52344 c -2.4108,0.7986 -14.67987,16.4881 -8.02539,23.14258 2.98123,2.98423 10.39583,0.55272 6.46289,-9.85157 -3.49762,-9.28144 1.5625,-13.29101 1.5625,-13.29101 z m 18.11914,4.33789 c -2.33275,0.50888 -21.72491,8.38537 -14.68164,15.43164 7.0808,7.06579 14.68164,-15.43164 14.68164,-15.43164 z m -27.72266,5.23437 c -2.40329,0.80311 -14.698477,16.50839 -8.02148,23.17188 2.98423,2.97523 10.41085,0.53393 6.46289,-9.88086 -3.50212,-9.26193 1.55859,-13.29102 1.55859,-13.29102 z m -9.869136,9.89454 c -2.443829,0.80009 -14.71832,16.49515 -8.048828,23.14062 2.978229,3.01726 10.420466,0.55918 6.478515,-9.84961 -3.502121,-9.28145 1.570313,-13.29101 1.570313,-13.29101 z m 41.773436,2.8125 c 0,0 -4.0501,5.07797 -13.29101,1.54882 -10.45533,-3.93294 -12.86314,3.49624 -9.87891,6.48047 6.64547,6.66199 22.36082,-5.61098 23.16992,-8.02929 z m -9.60156,9.59375 c 0,0 -4.01769,5.04387 -13.30664,1.53125 -10.40429,-3.90893 -12.85622,3.50795 -9.85547,6.49218 6.65298,6.66799 22.3545,-5.62314 23.16211,-8.02343 z m -9.89258,9.8789 c 0,0 -4.03509,5.06101 -13.29101,1.54688 -10.426809,-3.93295 -12.864322,3.48949 -9.851568,6.49023 6.651478,6.65298 22.364998,-5.64432 23.142578,-8.03711 z m -32.208984,5.1875 c -0.08866,0.0272 -0.182628,0.0895 -0.283203,0.19141 l -7.892578,9.64648 c -0.885663,0.89467 1.39056,4.71249 3.251953,2.83008 l 9.296875,-7.82812 c 0.804602,-0.7941 -0.955418,-1.12744 -2.234375,-2.40039 -1.121714,-1.13617 -1.518051,-2.63016 -2.138672,-2.43946 z"
       id="path2"
       inkscape:connector-curvature="0" /><path
       d="M 292.35547 36.542969 C 282.45947 36.542969 273.89211 40.161484 266.66211 47.396484 C 259.42811 54.620484 255.81055 63.192891 255.81055 73.087891 L 255.81055 182.72461 C 255.81055 192.62161 259.42711 201.18897 266.66211 208.41797 C 273.89211 215.65397 282.45947 219.27148 292.35547 219.27148 L 438.53516 219.27148 C 448.43216 219.27148 457.00647 215.65097 464.23047 208.41797 C 471.46447 201.18897 475.08203 192.62161 475.08203 182.72461 L 475.08203 73.087891 C 475.08203 63.192891 471.46747 54.626484 464.23047 47.396484 C 457.00547 40.158484 448.43216 36.542969 438.53516 36.542969 L 292.35547 36.542969 z M 345.77539 89.875 L 388.2793 89.875 C 410.51447 89.875 412.87432 108.99854 413.04688 115.35547 C 413.07153 116.47502 412.11576 117.38281 410.99414 117.38281 L 323.05859 117.38281 C 321.93697 117.38281 320.95207 116.47483 321.01367 115.35547 C 321.19239 108.99835 323.58336 89.875 345.77539 89.875 z M 346.125 96.271484 C 343.50584 96.271484 343.50584 100.32812 346.125 100.32812 C 348.738 100.32812 348.738 96.271484 346.125 96.271484 z M 367.02344 97.083984 C 364.41044 97.083984 364.41044 101.13848 367.02344 101.13867 C 369.6426 101.13867 369.6426 97.083984 367.02344 97.083984 z M 381.4082 97.083984 C 378.78904 97.083984 378.78904 101.13848 381.4082 101.13867 C 384.0212 101.13867 384.0212 97.083984 381.4082 97.083984 z M 335.98242 104.78906 C 333.36942 104.78906 333.36942 108.84375 335.98242 108.84375 C 338.59542 108.84375 338.59542 104.78906 335.98242 104.78906 z M 355.44922 104.78906 C 352.83621 104.78906 352.83621 108.84375 355.44922 108.84375 C 358.06838 108.84375 358.06838 104.78906 355.44922 104.78906 z M 393.4375 105.19531 C 390.81833 105.19531 390.81833 109.25 393.4375 109.25 C 396.0505 109.25 396.0505 105.19531 393.4375 105.19531 z M 321.67188 124.5625 L 412.38867 124.5625 C 416.33282 124.5625 419.52344 127.75935 419.52344 131.70312 C 419.52344 135.6469 416.33282 138.84375 412.38867 138.84375 L 321.67188 138.84375 C 317.72773 138.84375 314.5293 135.6469 314.5293 131.70312 C 314.5293 127.75935 317.72773 124.5625 321.67188 124.5625 z M 323.05859 146.25586 L 410.98828 146.25586 C 412.10989 146.25586 413.0911 147.16648 412.98633 148.28125 C 412.54878 152.88416 409.28838 163.73633 388.27344 163.73633 L 345.77539 163.73633 C 324.80359 163.73633 321.51824 152.88415 321.06836 148.28125 C 320.95743 147.16667 321.93697 146.25586 323.05859 146.25586 z "
       id="path6"
       style="fill:#ececec" /><path
       clip-path="none"
       d="M 292.35547 255.8125 C 282.45947 255.8125 273.89211 259.43306 266.66211 266.66406 C 259.42811 273.89506 255.81055 282.46142 255.81055 292.35742 L 255.81055 401.99414 C 255.81055 411.89114 259.42711 420.4605 266.66211 427.6875 C 273.89211 434.9215 282.45947 438.53906 292.35547 438.53906 L 438.53516 438.53906 C 448.43216 438.53906 457.00647 434.9225 464.23047 427.6875 C 471.46447 420.4595 475.08203 411.89114 475.08203 401.99414 L 475.08203 292.35742 C 475.08203 282.46142 471.46847 273.89506 464.23047 266.66406 C 457.00547 259.42706 448.43916 255.8125 438.53516 255.8125 L 292.35547 255.8125 z M 392.62109 273.95312 C 392.75541 273.961 392.89176 273.98143 393.02734 274.01758 L 396.41602 274.92383 C 397.4945 275.21323 398.15427 276.32798 397.87695 277.41406 L 393.66211 294.13477 L 391.63477 302.19336 L 408.33594 302.19336 C 409.45756 302.19336 410.36328 303.10038 410.36328 304.2207 L 410.36328 309.83203 C 410.36328 310.95196 409.45756 311.85938 408.33594 311.85938 L 404.16211 311.85938 L 389.67969 413.67969 C 389.52563 414.78833 388.48459 415.6875 387.36914 415.6875 L 346.52344 415.6875 C 345.40799 415.6875 344.37117 414.78852 344.21094 413.67969 L 329.78516 311.85938 L 325.61328 311.85938 C 324.49166 311.85938 323.58594 310.95177 323.58594 309.83203 L 323.58594 304.2207 C 323.58594 303.10057 324.49166 302.19336 325.61328 302.19336 L 383.94922 302.19336 L 385.94531 294.13477 L 390.58008 275.46289 C 390.81195 274.51157 391.68088 273.89799 392.62109 273.95312 z "
       id="path8"
       style="fill:#ececec" /><g
       transform="matrix(1.5011235,0,0,1.5011235,48.508109,66.640859)"
       id="g4" /><path
       style="fill:#ececec"
       d="M 37.939453 34.972656 C 28.039463 34.972656 19.475187 38.593125 12.242188 45.828125 C 5.0091876 53.052125 1.3925781 61.622578 1.3925781 71.517578 L 1.3925781 181.1543 C 1.3925781 191.0513 5.0091876 199.61866 12.242188 206.84766 C 19.474187 214.08366 28.038463 217.70117 37.939453 217.70117 L 184.11719 217.70117 C 194.01719 217.70117 202.58145 214.08066 209.81445 206.84766 C 217.04745 199.61866 220.66406 191.0513 220.66406 181.1543 L 220.66406 71.517578 C 220.66406 61.622578 217.04745 53.054172 209.81445 45.826172 C 202.58145 38.589172 194.01419 34.972656 184.11719 34.972656 L 37.939453 34.972656 z M 107.79688 80.992188 L 111.55273 80.992188 C 113.86557 80.992187 115.5293 83.465572 115.5293 86.060547 L 115.5293 92.392578 C 117.61744 91.559686 120.06126 90.775391 122.38086 90.775391 C 128.17901 90.775391 133.44656 93.373097 136.8457 95.550781 C 137.91343 96.235003 138.38967 97.511858 138.0332 98.726562 C 137.67842 99.944646 136.5857 100.75977 135.32031 100.75977 C 134.35058 100.73105 133.53263 100.71875 132.76562 100.71875 C 129.59117 100.71875 127.33843 100.94907 125.80273 101.21094 C 131.23427 104.83985 132.88386 109.31963 133.29102 112.53125 C 133.39407 113.34218 133.14545 114.15664 132.61328 114.75977 C 131.5861 115.92717 129.64639 116.02001 128.51953 114.92188 C 124.53077 111.02434 119.50928 110.19539 117.04102 110.0332 C 117.05284 120.30498 113.03932 126.94385 111.28906 129.34961 C 110.75689 130.07945 109.89878 130.51367 109 130.51367 C 108.03195 130.51367 107.14039 130.02862 106.61328 129.21094 C 103.78854 124.81333 103.53615 114.50239 103.58008 109.75 C 100.24682 109.50672 95.765919 111.68723 90.875 115.71484 C 89.604544 116.75892 87.568859 116.41964 86.683594 115.06641 C 86.163247 114.27068 86.087728 113.30767 86.474609 112.42578 C 89.105062 106.41983 92.976715 102.82412 95.542969 100.95898 C 93.216615 100.38627 89.806601 100.47878 85.751953 101.21875 C 84.211187 101.49751 82.916549 100.59686 82.519531 99.177734 C 82.178265 97.935998 82.689767 96.66057 83.792969 96 C 88.060486 93.45233 92.900726 92.158203 98.183594 92.158203 C 100.39338 92.158203 102.26853 92.392913 103.70117 92.632812 L 103.70117 85.699219 C 103.60487 83.104244 105.48404 80.992188 107.79688 80.992188 z M 141.0332 100.31836 C 150.5177 108.07963 155.89817 118.99469 155.89648 130.77344 C 155.89648 153.33248 135.85385 171.68164 111.2168 171.68164 C 86.579743 171.68164 66.539062 153.33248 66.539062 130.77344 C 66.539063 119.80562 71.40231 109.26379 79.923828 101.59375 C 81.17739 103.77988 83.600261 105.03681 86.357422 104.54688 C 86.676725 104.48943 86.987708 104.43376 87.296875 104.38477 C 85.884506 106.24146 84.526034 108.45559 83.378906 111.07422 C 82.540946 112.99173 82.717052 115.175 83.857422 116.92188 C 84.999481 118.66706 86.966007 119.70898 89.113281 119.70898 C 90.549302 119.70898 91.935177 119.21819 93.021484 118.32617 C 96.157079 115.74471 98.540397 114.42736 100.23828 113.76172 C 100.42243 120.08021 101.2537 127.12659 103.76758 131.04102 C 104.91977 132.82844 106.87443 133.89648 108.99805 133.89648 C 110.97469 133.89648 112.85213 132.94143 114.01953 131.33984 C 115.71235 129.01349 119.37472 123.04445 120.23633 113.99414 C 122.13525 114.53138 124.29671 115.52227 126.16016 117.3418 C 127.30559 118.45851 128.83781 119.07422 130.47656 119.07422 C 132.28595 119.07422 133.98975 118.31581 135.15039 116.99805 C 136.32624 115.66508 136.86949 113.88276 136.64648 112.10547 C 136.3559 109.82642 135.55218 106.96347 133.58398 104.10156 C 134.09588 104.10663 134.65663 104.1184 135.32227 104.13867 C 137.86994 104.13867 140.07867 102.62275 141.0332 100.31836 z M 76.501953 118.36133 C 75.844102 118.39435 75.237525 118.81114 74.998047 119.46875 C 74.247937 121.5231 73.786024 123.70174 73.628906 125.94531 C 73.564708 126.8745 74.26665 127.68385 75.199219 127.74805 C 75.238076 127.75143 75.277549 127.75195 75.316406 127.75195 C 76.194913 127.75195 76.93918 127.07002 77 126.17969 C 77.135155 124.25542 77.5282 122.38592 78.171875 120.62891 C 78.491179 119.75378 78.04088 118.78388 77.164062 118.46289 C 76.94528 118.38349 76.721237 118.35032 76.501953 118.36133 z M 75.203125 131.42773 C 75.089913 131.42221 74.974838 131.42889 74.857422 131.44727 C 73.934989 131.58242 73.296486 132.44111 73.431641 133.36523 C 73.799938 135.87743 74.62888 138.23538 75.892578 140.36914 C 76.206813 140.90131 76.769869 141.19727 77.347656 141.19727 C 77.639929 141.19727 77.936721 141.12143 78.207031 140.96094 C 79.011203 140.48621 79.275513 139.44897 78.800781 138.64648 C 77.761778 136.89285 77.081179 134.94936 76.775391 132.87305 C 76.65713 132.06592 75.995609 131.46638 75.203125 131.42773 z "
       id="path2-8" /><g
       transform="matrix(1.6894366,0,0,1.6894366,65.874443,80.991942)"
       id="g6" /></g><g
     id="g14" /><g
     id="g16" /><g
     id="g18" /><g
     id="g20" /><g
     id="g22" /><g
     id="g24" /><g
     id="g26" /><g
     id="g28" /><g
     id="g30" /><g
     id="g32" /><g
     id="g34" /><g
     id="g36" /><g
     id="g38" /><g
     id="g40" /><g
     id="g42" /><path
     d="m -173.46619,1223.4592 h 142.690004 c 1.82,0 3.37,-1.4724 3.33,-3.2891 -0.28,-10.3151 -4.11,-41.3476 -40.19,-41.3476 h -68.970004 c -36.01,0 -39.89,31.0322 -40.18,41.3476 -0.1,1.8164 1.5,3.2891 3.32,3.2891 z m 114.200004,-19.7785 c 4.24,0 4.24,6.5803 0,6.5803 -4.25,0 -4.25,-6.5803 0,-6.5803 z m -19.52,-13.161 c 4.24,0 4.24,6.5807 0,6.5807 -4.25,-4e-4 -4.25,-6.5807 0,-6.5807 z m -23.340004,0 c 4.250004,0 4.250004,6.5807 0,6.5807 -4.24,-4e-4 -4.24,-6.5807 0,-6.5807 z m -18.78,12.503 c 4.25,0 4.25,6.5806 0,6.5806 -4.24,0 -4.24,-6.5806 0,-6.5806 z m -15.13,-13.8193 c 4.24,0 4.24,6.5806 0,6.5806 -4.25,0 -4.25,-6.5806 0,-6.5806 z m -16.46,13.8193 c 4.24,0 4.24,6.5806 0,6.5806 -4.24,0 -4.24,-6.5806 0,-6.5806 z"
     id="path2-5"
     inkscape:connector-curvature="0"
     style="fill:#808080;stroke-width:0.31037802" /><path
     d="m -136.60619,1298.6744 h 68.960004 c 34.1,0 39.39,-17.61 40.1,-25.0789 0.17,-1.8089 -1.42,-3.286 -3.24,-3.286 H -173.46619 c -1.82,0 -3.41,1.4768 -3.23,3.2854 0.73,7.4689 6.06,25.0795 40.09,25.0795 z"
     id="path4-8"
     inkscape:connector-curvature="0"
     style="fill:#808080;stroke-width:0.31037802" /><path
     d="m -28.516186,1258.2833 c 6.4,0 11.58,-5.1876 11.58,-11.587 0,-6.3994 -5.18,-11.5871 -11.58,-11.5871 H -175.71619 c -6.4,0 -11.59,5.1877 -11.59,11.5871 0,6.3994 5.19,11.587 11.59,11.587 z"
     id="path6-9"
     inkscape:connector-curvature="0"
     style="fill:#808080;stroke-width:0.31037802" /><path
     d="M 103.49381,1114.5134 H 76.393814 l 3.29,-13.0765 6.84,-27.1305 c 0.45,-1.7623 -0.62,-3.5712 -2.37,-4.0408 l -5.5,-1.4705 c -1.76,-0.4693 -3.54,0.5797 -3.97,2.3439 l -7.52,30.2982 -3.24,13.0765 h -94.66 c -1.82,0 -3.29,1.4728 -3.29,3.2904 v 9.1036 c 0,1.817 1.47,3.2907 3.29,3.2907 h 6.77 l 23.40999954,165.2185 c 0.26,1.7993 1.93999996,3.2578 3.74999996,3.2578 H 69.473814 c 1.81,0 3.5,-1.4585 3.75,-3.2575 l 23.5,-165.2188 h 6.769996 c 1.82,0 3.29,-1.4734 3.29,-3.2907 v -9.1036 c 0,-1.8179 -1.47,-3.2907 -3.29,-3.2907 z"
     id="path8-1"
     inkscape:connector-curvature="0"
     style="fill:#808080;stroke-width:0.31037802" /></svg>