<?xml version="1.0" encoding="UTF-8" standalone="no"?>
<!-- Generator: Adobe Illustrator 19.0.0, SVG Export Plug-In . SVG Version: 6.00 Build 0)  -->

<svg
   xmlns:dc="http://purl.org/dc/elements/1.1/"
   xmlns:cc="http://creativecommons.org/ns#"
   xmlns:rdf="http://www.w3.org/1999/02/22-rdf-syntax-ns#"
   xmlns:svg="http://www.w3.org/2000/svg"
   xmlns="http://www.w3.org/2000/svg"
   xmlns:sodipodi="http://sodipodi.sourceforge.net/DTD/sodipodi-0.dtd"
   xmlns:inkscape="http://www.inkscape.org/namespaces/inkscape"
   version="1.1"
   id="Layer_1"
   x="0px"
   y="0px"
   viewBox="0 0 32 32"
   xml:space="preserve"
   sodipodi:docname="home.svg"
   width="32"
   height="32"
   inkscape:version="0.92.2 (5c3e80d, 2017-08-06)"><metadata
     id="metadata43"><rdf:RDF><cc:Work
         rdf:about=""><dc:format>image/svg+xml</dc:format><dc:type
           rdf:resource="http://purl.org/dc/dcmitype/StillImage" /><dc:title></dc:title></cc:Work></rdf:RDF></metadata><defs
     id="defs41" /><sodipodi:namedview
     pagecolor="#ffffff"
     bordercolor="#666666"
     borderopacity="1"
     objecttolerance="10"
     gridtolerance="10"
     guidetolerance="10"
     inkscape:pageopacity="0"
     inkscape:pageshadow="2"
     inkscape:window-width="1366"
     inkscape:window-height="706"
     id="namedview39"
     showgrid="false"
     inkscape:zoom="5.2149125"
     inkscape:cx="80.896743"
     inkscape:cy="34.05232"
     inkscape:window-x="-8"
     inkscape:window-y="-8"
     inkscape:window-maximized="1"
     inkscape:current-layer="Layer_1" /><g
     id="g6"
     style="fill:#ececec"
     transform="matrix(0.06120732,0,0,0.06120732,0.63287188,0.2322408)"><g
       id="g4"
       style="fill:#ececec"><path
         d="m 398.566,333.203 c -0.011,0 -0.032,0 -0.044,0 h -0.202 c 10.571,-14.027 16.921,-31.408 16.921,-50.287 v -33.524 c 0,-5.739 -0.586,-11.345 -1.688,-16.762 h 35.213 c 9.254,0 16.762,-7.503 16.762,-16.762 0,-9.259 -7.508,-16.762 -16.762,-16.762 H 398.32 c -3.766,-4.996 -8.032,-9.586 -12.798,-13.627 l 40.73,-40.73 c 6.547,-6.542 6.547,-17.16 0,-23.703 -6.547,-6.547 -17.156,-6.547 -23.703,0 l -47.882,47.882 c -2.132,-0.617 -4.277,-1.209 -6.476,-1.657 V 98.533 c 0,-9.259 -7.508,-16.762 -16.762,-16.762 -9.254,0 -16.762,7.503 -16.762,16.762 v 68.738 c -2.199,0.448 -4.344,1.039 -6.476,1.657 l -47.882,-47.882 c -6.547,-6.547 -17.156,-6.547 -23.703,0 -6.547,6.542 -6.547,17.16 0,23.703 l 40.73,40.73 c -4.766,4.041 -9.031,8.63 -12.799,13.627 h -50.445 c -9.254,0 -16.762,7.503 -16.762,16.762 0,9.259 7.508,16.762 16.762,16.762 h 35.213 c -1.104,5.418 -1.688,11.023 -1.688,16.762 v 33.524 c 0,18.879 6.348,36.26 16.921,50.287 h -16.921 c -46.216,0 -83.811,-37.595 -83.811,-83.811 0,-12.926 -5.038,-24.607 -13.079,-33.524 8.041,-8.917 13.079,-20.599 13.079,-33.524 0,-5.906 -1.211,-11.493 -3.089,-16.762 h 19.851 c 9.254,0 16.762,-7.503 16.762,-16.762 0,-9.259 -7.508,-16.762 -16.762,-16.762 H 154.71 C 171.942,98.406 158.109,61.819 128.666,36.107 119.379,27.993 109.776,19.606 106.841,10.303 104.922,4.168 99.237,0 92.809,0 86.381,0.006 80.696,4.174 78.763,10.302 c -5.565,17.706 -0.95,30.861 2.423,40.465 4.783,13.624 5.336,15.993 -7.017,36.858 -7.009,11.791 -14.795,24.963 -6.995,44.432 H 46.473 c -9.254,0 -16.762,7.503 -16.762,16.762 0,9.259 7.508,16.762 16.762,16.762 h 19.851 c -1.877,5.269 -3.089,10.856 -3.089,16.762 0,12.926 5.038,24.607 13.079,33.524 -8.041,8.917 -13.079,20.598 -13.079,33.524 0,55.628 40.312,123.648 93.774,158.226 25.23,16.325 40.301,43.984 40.312,74.011 l 0.011,13.609 c 0,9.259 7.508,16.762 16.762,16.762 h 251.433 c 9.254,0 16.762,-7.503 16.762,-16.762 v -78.224 c 0.001,-46.182 -37.551,-83.766 -83.723,-83.81 z M 114.884,132.057 h -12.927 c -1.552,-1.296 -3.32,-3.228 -4.957,-5.97 -5.74,-9.604 -4.649,-11.442 2.477,-23.425 8.782,-14.801 14.703,-26.124 14.263,-40.393 29.977,28.758 19.864,61.514 1.144,69.788 z m 266.832,346.419 h -88.045 l 88.045,-88.045 z m 0,-195.559 c 0,27.729 -22.557,50.287 -50.287,50.287 -27.73,0 -50.287,-22.557 -50.287,-50.287 v -16.762 h 16.762 c 12.926,0 24.607,-5.038 33.524,-13.079 8.917,8.041 20.599,13.079 33.524,13.079 h 16.762 v 16.762 z"
         id="path2"
         style="fill:#ececec"
         inkscape:connector-curvature="0" /></g></g><g
     id="g8"
     transform="translate(0,-480)" /><g
     id="g10"
     transform="translate(0,-480)" /><g
     id="g12"
     transform="translate(0,-480)" /><g
     id="g14"
     transform="translate(0,-480)" /><g
     id="g16"
     transform="translate(0,-480)" /><g
     id="g18"
     transform="translate(0,-480)" /><g
     id="g20"
     transform="translate(0,-480)" /><g
     id="g22"
     transform="translate(0,-480)" /><g
     id="g24"
     transform="translate(0,-480)" /><g
     id="g26"
     transform="translate(0,-480)" /><g
     id="g28"
     transform="translate(0,-480)" /><g
     id="g30"
     transform="translate(0,-480)" /><g
     id="g32"
     transform="translate(0,-480)" /><g
     id="g34"
     transform="translate(0,-480)" /><g
     id="g36"
     transform="translate(0,-480)" /></svg>