<?xml version="1.0" encoding="UTF-8" standalone="no"?>
<!-- Generator: Adobe Illustrator 16.0.0, SVG Export Plug-In . SVG Version: 6.00 Build 0)  -->

<svg
   xmlns:dc="http://purl.org/dc/elements/1.1/"
   xmlns:cc="http://creativecommons.org/ns#"
   xmlns:rdf="http://www.w3.org/1999/02/22-rdf-syntax-ns#"
   xmlns:svg="http://www.w3.org/2000/svg"
   xmlns="http://www.w3.org/2000/svg"
   xmlns:sodipodi="http://sodipodi.sourceforge.net/DTD/sodipodi-0.dtd"
   xmlns:inkscape="http://www.inkscape.org/namespaces/inkscape"
   version="1.1"
   id="Capa_1"
   x="0px"
   y="0px"
   width="32"
   height="32"
   viewBox="0 0 31.999999 32"
   xml:space="preserve"
   sodipodi:docname="memo.svg"
   inkscape:version="0.92.2 (5c3e80d, 2017-08-06)"><metadata
     id="metadata41"><rdf:RDF><cc:Work
         rdf:about=""><dc:format>image/svg+xml</dc:format><dc:type
           rdf:resource="http://purl.org/dc/dcmitype/StillImage" /><dc:title></dc:title></cc:Work></rdf:RDF></metadata><defs
     id="defs39" /><sodipodi:namedview
     pagecolor="#ffffff"
     bordercolor="#666666"
     borderopacity="1"
     objecttolerance="10"
     gridtolerance="10"
     guidetolerance="10"
     inkscape:pageopacity="0"
     inkscape:pageshadow="2"
     inkscape:window-width="640"
     inkscape:window-height="480"
     id="namedview37"
     showgrid="false"
     inkscape:zoom="5.9999713"
     inkscape:cx="39.456298"
     inkscape:cy="21.875417"
     inkscape:window-x="30"
     inkscape:window-y="3"
     inkscape:window-maximized="0"
     inkscape:current-layer="g4" /><g
     id="g4"
     transform="translate(0,-190.504)"><path
       d="m 25.306404,194.59463 c -1.76026,-1.96421 -4.084363,-3.78699 -9.828921,-3.82707 -2.244078,-0.018 -5.6718712,0.51303 -8.33809,3.33239 -1.6133372,1.70253 -2.8005815,3.85359 -2.4627,7.36945 0.073392,0.763 1.1629695,1.64554 0.3970187,3.11787 0,0 -1.6433994,2.89359 -1.5858151,3.37487 0,0 -0.030062,0.88013 1.3314865,0.90778 0,0 0.3404221,0.044 0.2419086,0.79419 l -0.014963,1.09352 c 0,0 0.04347,0.32546 0.6390683,0.5232 0,0 0.113474,0.11348 -0.05674,0.32772 0,0 -0.3137468,0.34959 0.2269488,1.1054 0.200132,0.2752 0.5239005,0.62226 0.3253207,1.33471 0,0 -0.2553171,1.37313 0.2836855,1.70198 0,0 0.6132399,0.72728 3.0791858,0.42284 0.8609352,-0.10585 2.4525372,-0.52305 3.4019662,0.66815 0,0 2.268211,4.30961 2.440116,5.32905 0,0 3.870823,-6.89059 8.595807,-7.95419 0,0 -1.151253,-2.59538 1.189645,-5.95642 0,0 2.93565,-3.87166 3.021602,-5.99846 -0.0018,-1.4e-4 0.773289,-3.58389 -2.886534,-7.66698 z m -7.153528,-0.80222 1.318079,0.48763 -1.309752,3.53421 -1.316385,-0.48721 z m -5.141338,0.44049 1.575936,3.42568 -1.276302,0.58684 -1.574383,-3.4244 z m -1.909583,6.82651 -3.5344941,-1.3082 0.4872049,-1.31723 3.5346342,1.3082 z m 4.252033,5.966 -0.231181,-0.5047 c -1.309612,-0.26027 -2.480907,-1.11739 -3.080739,-2.42093 -0.99191,-2.15854 -0.04671,-4.71383 2.111409,-5.70659 2.15982,-0.99191 4.713411,-0.0458 5.706168,2.11352 0.599833,1.30341 0.487206,2.75331 -0.168517,3.91416 l 0.232029,0.50555 z m 0.15511,0.3362 4.566628,-2.09929 0.204367,0.445 -4.569169,2.09886 z m 4.581729,-0.0467 c 0.09089,0.51064 -0.377964,1.14971 -1.14716,1.50325 -0.767504,0.352 -1.559988,0.29371 -1.887003,-0.10852 -0.436254,0.17345 -0.936019,-0.0149 -1.133611,-0.44459 l -0.05096,-0.11093 4.567475,-2.09886 0.05251,0.11009 c 0.196746,0.43047 0.01496,0.93194 -0.401251,1.14956 z"
       id="path2"
       style="fill:#ececec;stroke-width:0.14113699"
       inkscape:connector-curvature="0" /></g><g
     id="g6"
     transform="translate(0,-190.504)" /><g
     id="g8"
     transform="translate(0,-190.504)" /><g
     id="g10"
     transform="translate(0,-190.504)" /><g
     id="g12"
     transform="translate(0,-190.504)" /><g
     id="g14"
     transform="translate(0,-190.504)" /><g
     id="g16"
     transform="translate(0,-190.504)" /><g
     id="g18"
     transform="translate(0,-190.504)" /><g
     id="g20"
     transform="translate(0,-190.504)" /><g
     id="g22"
     transform="translate(0,-190.504)" /><g
     id="g24"
     transform="translate(0,-190.504)" /><g
     id="g26"
     transform="translate(0,-190.504)" /><g
     id="g28"
     transform="translate(0,-190.504)" /><g
     id="g30"
     transform="translate(0,-190.504)" /><g
     id="g32"
     transform="translate(0,-190.504)" /><g
     id="g34"
     transform="translate(0,-190.504)" /></svg>