<?xml version="1.0" encoding="UTF-8" standalone="no"?>
<!-- Generator: Adobe Illustrator 19.1.0, SVG Export Plug-In . SVG Version: 6.00 Build 0)  -->

<svg
   xmlns:dc="http://purl.org/dc/elements/1.1/"
   xmlns:cc="http://creativecommons.org/ns#"
   xmlns:rdf="http://www.w3.org/1999/02/22-rdf-syntax-ns#"
   xmlns:svg="http://www.w3.org/2000/svg"
   xmlns="http://www.w3.org/2000/svg"
   xmlns:sodipodi="http://sodipodi.sourceforge.net/DTD/sodipodi-0.dtd"
   xmlns:inkscape="http://www.inkscape.org/namespaces/inkscape"
   version="1.1"
   id="Capa_1"
   x="0px"
   y="0px"
   viewBox="0 0 487.1 487.1"
   style="enable-background:new 0 0 487.1 487.1;"
   xml:space="preserve"
   sodipodi:docname="panier.svg"
   inkscape:version="0.92.2 (5c3e80d, 2017-08-06)"><metadata
     id="metadata47"><rdf:RDF><cc:Work
         rdf:about=""><dc:format>image/svg+xml</dc:format><dc:type
           rdf:resource="http://purl.org/dc/dcmitype/StillImage" /><dc:title></dc:title></cc:Work></rdf:RDF></metadata><defs
     id="defs45" /><sodipodi:namedview
     pagecolor="#ffffff"
     bordercolor="#666666"
     borderopacity="1"
     objecttolerance="10"
     gridtolerance="10"
     guidetolerance="10"
     inkscape:pageopacity="0"
     inkscape:pageshadow="2"
     inkscape:window-width="640"
     inkscape:window-height="480"
     id="namedview43"
     showgrid="false"
     inkscape:zoom="0.4845001"
     inkscape:cx="243.55"
     inkscape:cy="243.55"
     inkscape:window-x="0"
     inkscape:window-y="0"
     inkscape:window-maximized="0"
     inkscape:current-layer="Capa_1" /><g
     id="g10"
     style="fill:#ececec"><g
       id="g8"
       style="fill:#ececec"><path
         d="M342.3,137.978H385l-63.3-108.6c-5.1-8.8-16.4-11.8-25.2-6.6c-8.8,5.1-11.8,16.4-6.6,25.2L342.3,137.978z"
         id="path2"
         style="fill:#ececec" /><path
         d="M197.4,47.978c5.1-8.8,2.2-20.1-6.6-25.2s-20.1-2.2-25.2,6.6l-63.3,108.7H145L197.4,47.978z"
         id="path4"
         style="fill:#ececec" /><path
         d="M455.7,171.278H31.3c-17.3,0-31.3,14-31.3,31.3v34.7c0,17.3,14,31.3,31.3,31.3h9.8l30.2,163.7    c3.8,19.3,21.4,34.6,39.7,34.6h12h78.8c8,0,18.4,0,29,0l0,0h9.6h9.6l0,0c10.6,0,21,0,29,0h78.8h12c18.3,0,35.9-15.3,39.7-34.6    l30.4-163.8h15.9c17.3,0,31.3-14,31.3-31.3v-34.7C487,185.278,473,171.278,455.7,171.278z M172.8,334.878v70.6    c0,10.1-8.2,17.7-17.7,17.7c-10.1,0-17.7-8.2-17.7-17.7v-29.6v-69.4c0-10.1,8.2-17.7,17.7-17.7c10.1,0,17.7,8.2,17.7,17.7V334.878    z M229.6,334.878v70.6c0,10.1-8.2,17.7-17.7,17.7c-10.1,0-17.7-8.2-17.7-17.7v-29.6v-69.4c0-10.1,8.2-17.7,17.7-17.7    s17.7,8.2,17.7,17.7V334.878z M286.7,375.878v29.6c0,9.5-7.6,17.7-17.7,17.7c-9.5,0-17.7-7.6-17.7-17.7v-70.6v-28.4    c0-9.5,8.2-17.7,17.7-17.7s17.7,7.6,17.7,17.7V375.878z M343.5,375.878v29.6c0,9.5-7.6,17.7-17.7,17.7c-9.5,0-17.7-7.6-17.7-17.7    v-70.6v-28.4c0-9.5,7.6-17.7,17.7-17.7c9.5,0,17.7,7.6,17.7,17.7V375.878z"
         id="path6"
         style="fill:#ececec" /></g></g><g
     id="g12" /><g
     id="g14" /><g
     id="g16" /><g
     id="g18" /><g
     id="g20" /><g
     id="g22" /><g
     id="g24" /><g
     id="g26" /><g
     id="g28" /><g
     id="g30" /><g
     id="g32" /><g
     id="g34" /><g
     id="g36" /><g
     id="g38" /><g
     id="g40" /></svg>