<?xml version="1.0" encoding="UTF-8" standalone="no"?>
<!-- Generator: Adobe Illustrator 19.0.0, SVG Export Plug-In . SVG Version: 6.00 Build 0)  -->

<svg
   xmlns:dc="http://purl.org/dc/elements/1.1/"
   xmlns:cc="http://creativecommons.org/ns#"
   xmlns:rdf="http://www.w3.org/1999/02/22-rdf-syntax-ns#"
   xmlns:svg="http://www.w3.org/2000/svg"
   xmlns="http://www.w3.org/2000/svg"
   xmlns:sodipodi="http://sodipodi.sourceforge.net/DTD/sodipodi-0.dtd"
   xmlns:inkscape="http://www.inkscape.org/namespaces/inkscape"
   version="1.1"
   id="Capa_1"
   x="0px"
   y="0px"
   viewBox="0 0 31.999999 31.999999"
   xml:space="preserve"
   sodipodi:docname="recette.svg"
   width="32"
   height="32"
   inkscape:version="0.92.2 (5c3e80d, 2017-08-06)"><metadata
     id="metadata47"><rdf:RDF><cc:Work
         rdf:about=""><dc:format>image/svg+xml</dc:format><dc:type
           rdf:resource="http://purl.org/dc/dcmitype/StillImage" /><dc:title></dc:title></cc:Work></rdf:RDF></metadata><defs
     id="defs45" /><sodipodi:namedview
     pagecolor="#ffffff"
     bordercolor="#666666"
     borderopacity="1"
     objecttolerance="10"
     gridtolerance="10"
     guidetolerance="10"
     inkscape:pageopacity="0"
     inkscape:pageshadow="2"
     inkscape:window-width="640"
     inkscape:window-height="480"
     id="namedview43"
     showgrid="false"
     inkscape:zoom="5.6889994"
     inkscape:cx="21.830159"
     inkscape:cy="12.000373"
     inkscape:window-x="38"
     inkscape:window-y="85"
     inkscape:window-maximized="0"
     inkscape:current-layer="Capa_1" /><g
     id="g10"
     transform="matrix(0.06732801,0,0,0.06732801,0.35155567,0.40073231)"
     style="fill:#ececec"><g
       id="g8"
       style="fill:#ececec"><g
         id="g6"
         style="fill:#ececec"><path
           d="M 394.667,384 H 74.75 c -5.885,0 -10.656,4.771 -10.667,10.656 l -0.042,31.104 c -0.01,11.635 4.51,22.573 12.729,30.802 8.229,8.24 19.156,12.771 30.792,12.771 h 254.25 c 24,0 43.521,-19.521 43.521,-43.521 v -31.146 c 0,-5.895 -4.77,-10.666 -10.666,-10.666 z"
           id="path2"
           inkscape:connector-curvature="0"
           style="fill:#ececec" /><path
           d="m 352,42.667 c -6.531,0 -13.24,0.656 -20.344,1.979 C 307.25,16.187 272.271,0 234.667,0 c -70.583,0 -128,57.417 -128,128 0,5.885 -4.781,10.667 -10.667,10.667 -5.885,0 -10.667,-4.781 -10.667,-10.667 0,-23.094 5.313,-45.438 15.792,-66.406 1.865,-3.729 1.385,-8.198 -1.219,-11.448 C 97.302,46.917 93.041,45.479 89,46.469 36.594,59.542 0,106.229 0,160 c 0,44.333 25,84.635 64.25,104.562 l -0.115,87.427 c 0,2.823 1.115,5.542 3.115,7.552 2.01,2 4.719,3.125 7.552,3.125 h 319.865 c 5.896,0 10.667,-4.771 10.667,-10.667 v -87.594 c 39.104,-19.979 64,-60.219 64,-104.406 C 469.333,95.302 416.698,42.667 352,42.667 Z M 156.104,296.25 c -1.99,1.625 -4.385,2.417 -6.76,2.417 -3.083,0 -6.146,-1.333 -8.26,-3.896 -3.521,-4.302 -34.417,-42.76 -34.417,-70.771 0,-5.896 4.771,-10.667 10.667,-10.667 5.896,0 10.667,4.771 10.667,10.667 0,15.438 18.146,43.292 29.583,57.229 3.728,4.563 3.072,11.281 -1.48,15.021 z M 245.333,288 c 0,5.896 -4.771,10.667 -10.667,10.667 C 228.77,298.667 224,293.896 224,288 v -64 c 0,-5.896 4.771,-10.667 10.667,-10.667 5.896,0 10.667,4.771 10.667,10.667 v 64 z m 82.917,6.771 c -2.115,2.563 -5.167,3.896 -8.25,3.896 -2.385,0 -4.781,-0.792 -6.76,-2.417 -4.552,-3.74 -5.219,-10.458 -1.49,-15.01 11.438,-13.969 29.583,-41.854 29.583,-57.24 0,-5.896 4.771,-10.667 10.667,-10.667 5.896,0 10.667,4.771 10.667,10.667 0,28.01 -30.896,66.469 -34.417,70.771 z"
           id="path4"
           inkscape:connector-curvature="0"
           style="fill:#ececec" /></g></g></g><g
     id="g12"
     transform="translate(0,-437.33301)" /><g
     id="g14"
     transform="translate(0,-437.33301)" /><g
     id="g16"
     transform="translate(0,-437.33301)" /><g
     id="g18"
     transform="translate(0,-437.33301)" /><g
     id="g20"
     transform="translate(0,-437.33301)" /><g
     id="g22"
     transform="translate(0,-437.33301)" /><g
     id="g24"
     transform="translate(0,-437.33301)" /><g
     id="g26"
     transform="translate(0,-437.33301)" /><g
     id="g28"
     transform="translate(0,-437.33301)" /><g
     id="g30"
     transform="translate(0,-437.33301)" /><g
     id="g32"
     transform="translate(0,-437.33301)" /><g
     id="g34"
     transform="translate(0,-437.33301)" /><g
     id="g36"
     transform="translate(0,-437.33301)" /><g
     id="g38"
     transform="translate(0,-437.33301)" /><g
     id="g40"
     transform="translate(0,-437.33301)" /></svg>